<mxfile host="Electron" agent="Mozilla/5.0 (X11; Linux x86_64) AppleWebKit/537.36 (KHTML, like Gecko) draw.io/26.0.16 Chrome/132.0.6834.196 Electron/34.2.0 Safari/537.36" version="26.0.16" pages="3">
  <diagram name="logo" id="tte6xfm6YIGyEFaF_oNk">
    <mxGraphModel dx="1434" dy="959" grid="0" gridSize="10" guides="1" tooltips="1" connect="1" arrows="1" fold="1" page="1" pageScale="1" pageWidth="1654" pageHeight="1169" math="0" shadow="0">
      <root>
        <mxCell id="0" />
        <mxCell id="1" parent="0" />
        <mxCell id="tqBxPX9QbWqCnDgizAYw-22" value="" style="verticalLabelPosition=bottom;verticalAlign=top;html=1;shape=mxgraph.basic.arc;startAngle=0.0;endAngle=0.5;strokeColor=#6B6B6B;strokeWidth=6;rotation=-90;" parent="1" vertex="1">
          <mxGeometry x="448.5" y="330" width="62.99999999999999" height="140" as="geometry" />
        </mxCell>
        <mxCell id="tqBxPX9QbWqCnDgizAYw-21" value="" style="verticalLabelPosition=bottom;verticalAlign=top;html=1;shape=mxgraph.basic.arc;startAngle=0.0;endAngle=0.5;strokeColor=#6B6B6B;strokeWidth=6;" parent="1" vertex="1">
          <mxGeometry x="448.5" y="330" width="62.99999999999999" height="140" as="geometry" />
        </mxCell>
        <mxCell id="tqBxPX9QbWqCnDgizAYw-33" value="" style="group" parent="1" vertex="1" connectable="0">
          <mxGeometry x="400" y="340" width="160" height="120" as="geometry" />
        </mxCell>
        <mxCell id="tqBxPX9QbWqCnDgizAYw-1" value="" style="shape=tape;whiteSpace=wrap;html=1;size=0.4;fillColor=#009682;strokeColor=none;shadow=0;opacity=50;gradientColor=none;" parent="tqBxPX9QbWqCnDgizAYw-33" vertex="1">
          <mxGeometry width="160" height="100" as="geometry" />
        </mxCell>
        <mxCell id="tqBxPX9QbWqCnDgizAYw-2" value="" style="shape=tape;whiteSpace=wrap;html=1;size=0.6;fillColor=#009682;strokeColor=none;shadow=0;opacity=60;" parent="tqBxPX9QbWqCnDgizAYw-33" vertex="1">
          <mxGeometry y="10" width="160" height="100" as="geometry" />
        </mxCell>
        <mxCell id="tqBxPX9QbWqCnDgizAYw-3" value="" style="shape=tape;whiteSpace=wrap;html=1;size=0.8;fillColor=#009682;strokeColor=none;shadow=0;" parent="tqBxPX9QbWqCnDgizAYw-33" vertex="1">
          <mxGeometry y="20" width="160" height="100" as="geometry" />
        </mxCell>
        <mxCell id="IXEXvQSagwVBPV9I2waN-1" value="" style="ellipse;whiteSpace=wrap;html=1;aspect=fixed;fillColor=none;strokeWidth=6;strokeColor=#6B6B6B;shadow=0;" parent="1" vertex="1">
          <mxGeometry x="410" y="330" width="140" height="140" as="geometry" />
        </mxCell>
        <mxCell id="tqBxPX9QbWqCnDgizAYw-23" value="" style="endArrow=oval;html=1;rounded=0;entryX=0;entryY=0;entryDx=0;entryDy=0;strokeWidth=6;endFill=1;startArrow=oval;startFill=1;exitX=1;exitY=1;exitDx=0;exitDy=0;" parent="1" edge="1">
          <mxGeometry width="50" height="50" relative="1" as="geometry">
            <mxPoint x="529.4974746830578" y="449.4974746830577" as="sourcePoint" />
            <mxPoint x="430.5025253169422" y="350.5025253169422" as="targetPoint" />
          </mxGeometry>
        </mxCell>
        <mxCell id="tqBxPX9QbWqCnDgizAYw-20" value="" style="verticalLabelPosition=bottom;verticalAlign=top;html=1;shape=mxgraph.basic.arc;startAngle=0.0;endAngle=0.5;strokeColor=#6B6B6B;strokeWidth=6;rotation=-180;" parent="1" vertex="1">
          <mxGeometry x="448.5" y="330" width="62.99999999999999" height="140" as="geometry" />
        </mxCell>
        <mxCell id="tqBxPX9QbWqCnDgizAYw-18" value="" style="verticalLabelPosition=bottom;verticalAlign=top;html=1;shape=mxgraph.basic.arc;startAngle=0.0;endAngle=0.5;strokeColor=#6B6B6B;strokeWidth=6;rotation=90;" parent="1" vertex="1">
          <mxGeometry x="447.3333333333333" y="330" width="65.33333333333333" height="140" as="geometry" />
        </mxCell>
      </root>
    </mxGraphModel>
  </diagram>
  <diagram id="SSEbEsU199R9Bi_7QSbN" name="rel-entropy">
    <mxGraphModel dx="785" dy="703" grid="0" gridSize="10" guides="1" tooltips="1" connect="1" arrows="1" fold="1" page="0" pageScale="1" pageWidth="1654" pageHeight="1169" math="1" shadow="0">
      <root>
        <mxCell id="0" />
        <mxCell id="1" parent="0" />
        <mxCell id="XVtHyJo67wdMvk2lAhTM-1" value="" style="ellipse;shape=cloud;whiteSpace=wrap;html=1;fillColor=none;fontColor=#6B6B6B;sketch=1;curveFitting=1;jiggle=2;strokeWidth=2;" parent="1" vertex="1">
          <mxGeometry x="647" y="278" width="212" height="115" as="geometry" />
        </mxCell>
        <mxCell id="XVtHyJo67wdMvk2lAhTM-2" value="\(\sigma_1\)" style="text;html=1;align=center;verticalAlign=middle;whiteSpace=wrap;rounded=0;fontSize=22;fontColor=default;sketch=1;curveFitting=1;jiggle=2;strokeWidth=2;" parent="1" vertex="1">
          <mxGeometry x="704" y="312" width="34" height="27" as="geometry" />
        </mxCell>
        <mxCell id="XVtHyJo67wdMvk2lAhTM-3" value="\(\sigma_\cdots\)" style="text;html=1;align=center;verticalAlign=middle;whiteSpace=wrap;rounded=0;fontSize=22;fontColor=default;sketch=1;curveFitting=1;jiggle=2;strokeWidth=2;" parent="1" vertex="1">
          <mxGeometry x="773" y="307" width="34" height="27" as="geometry" />
        </mxCell>
        <mxCell id="XVtHyJo67wdMvk2lAhTM-5" value="\(\sigma_n\)" style="text;html=1;align=center;verticalAlign=middle;whiteSpace=wrap;rounded=0;fontSize=22;fontColor=default;sketch=1;curveFitting=1;jiggle=2;strokeWidth=2;" parent="1" vertex="1">
          <mxGeometry x="744" y="347" width="34" height="27" as="geometry" />
        </mxCell>
        <mxCell id="XVtHyJo67wdMvk2lAhTM-6" value="\(\rho^\text{pqc}_1\)" style="text;html=1;align=center;verticalAlign=middle;whiteSpace=wrap;rounded=0;fontSize=22;fontColor=default;sketch=1;curveFitting=1;jiggle=2;strokeWidth=2;fontStyle=0" parent="1" vertex="1">
          <mxGeometry x="533" y="320.5" width="60" height="30" as="geometry" />
        </mxCell>
        <mxCell id="XVtHyJo67wdMvk2lAhTM-7" value="\(\rho^\text{pqc}_\cdots\)" style="text;html=1;align=center;verticalAlign=middle;whiteSpace=wrap;rounded=0;fontSize=22;fontColor=default;sketch=1;curveFitting=1;jiggle=2;strokeWidth=2;fontStyle=0" parent="1" vertex="1">
          <mxGeometry x="516" y="380" width="60" height="30" as="geometry" />
        </mxCell>
        <mxCell id="XVtHyJo67wdMvk2lAhTM-8" value="\(\rho^\text{pqc}_n\)" style="text;html=1;align=center;verticalAlign=middle;whiteSpace=wrap;rounded=0;fontSize=22;fontColor=default;sketch=1;curveFitting=1;jiggle=2;strokeWidth=2;fontStyle=0" parent="1" vertex="1">
          <mxGeometry x="590" y="404" width="60" height="30" as="geometry" />
        </mxCell>
        <mxCell id="XVtHyJo67wdMvk2lAhTM-9" value="\(\rho^\text{ghz}\)" style="text;html=1;align=center;verticalAlign=middle;whiteSpace=wrap;rounded=0;fontSize=22;fontColor=default;sketch=1;curveFitting=1;jiggle=2;strokeWidth=2;fontStyle=0" parent="1" vertex="1">
          <mxGeometry x="921" y="285" width="60" height="30" as="geometry" />
        </mxCell>
        <mxCell id="XVtHyJo67wdMvk2lAhTM-10" value="" style="endArrow=classic;startArrow=classic;html=1;rounded=0;strokeColor=#009682;sketch=1;curveFitting=1;jiggle=2;strokeWidth=2;" parent="1" source="XVtHyJo67wdMvk2lAhTM-6" target="XVtHyJo67wdMvk2lAhTM-1" edge="1">
          <mxGeometry width="50" height="50" relative="1" as="geometry">
            <mxPoint x="595" y="312" as="sourcePoint" />
            <mxPoint x="645" y="262" as="targetPoint" />
          </mxGeometry>
        </mxCell>
        <mxCell id="XVtHyJo67wdMvk2lAhTM-11" value="" style="endArrow=classic;startArrow=classic;html=1;rounded=0;strokeColor=#009682;sketch=1;curveFitting=1;jiggle=2;strokeWidth=2;" parent="1" source="XVtHyJo67wdMvk2lAhTM-7" target="XVtHyJo67wdMvk2lAhTM-1" edge="1">
          <mxGeometry width="50" height="50" relative="1" as="geometry">
            <mxPoint x="620" y="359" as="sourcePoint" />
            <mxPoint x="722" y="330" as="targetPoint" />
          </mxGeometry>
        </mxCell>
        <mxCell id="XVtHyJo67wdMvk2lAhTM-12" value="" style="endArrow=classic;startArrow=classic;html=1;rounded=0;strokeColor=#009682;sketch=1;curveFitting=1;jiggle=2;strokeWidth=2;" parent="1" source="XVtHyJo67wdMvk2lAhTM-8" target="XVtHyJo67wdMvk2lAhTM-1" edge="1">
          <mxGeometry width="50" height="50" relative="1" as="geometry">
            <mxPoint x="630" y="369" as="sourcePoint" />
            <mxPoint x="732" y="340" as="targetPoint" />
          </mxGeometry>
        </mxCell>
        <mxCell id="XVtHyJo67wdMvk2lAhTM-14" value="" style="endArrow=classic;startArrow=classic;html=1;rounded=0;strokeColor=#009682;sketch=1;curveFitting=1;jiggle=2;strokeWidth=2;" parent="1" source="XVtHyJo67wdMvk2lAhTM-9" target="XVtHyJo67wdMvk2lAhTM-1" edge="1">
          <mxGeometry width="50" height="50" relative="1" as="geometry">
            <mxPoint x="650" y="389" as="sourcePoint" />
            <mxPoint x="752" y="360" as="targetPoint" />
          </mxGeometry>
        </mxCell>
      </root>
    </mxGraphModel>
  </diagram>
  <diagram id="JMgXdDlrIK9AfJQUDzpX" name="bloch-sphere">
    <mxGraphModel dx="283" dy="457" grid="0" gridSize="10" guides="1" tooltips="1" connect="1" arrows="1" fold="1" page="0" pageScale="1" pageWidth="1654" pageHeight="1169" math="1" shadow="0">
      <root>
        <mxCell id="0" />
        <mxCell id="1" parent="0" />
        <mxCell id="9tUMkkTMGl4NLALWimwQ-11" value="" style="group" vertex="1" connectable="0" parent="1">
          <mxGeometry x="649" y="334" width="332.73" height="314" as="geometry" />
        </mxCell>
        <mxCell id="3f7pc-ClaWelfc8Z_cNx-2" value="" style="ellipse;whiteSpace=wrap;html=1;rotation=-90;fillColor=none;strokeColor=#009682;strokeWidth=2;" parent="9tUMkkTMGl4NLALWimwQ-11" vertex="1">
          <mxGeometry x="44.0701986754967" y="50.68070175438597" width="226.96152317880797" height="226.96140350877195" as="geometry" />
        </mxCell>
        <mxCell id="3f7pc-ClaWelfc8Z_cNx-1" value="" style="ellipse;whiteSpace=wrap;html=1;fillColor=none;strokeColor=#009682;strokeWidth=2;" parent="9tUMkkTMGl4NLALWimwQ-11" vertex="1">
          <mxGeometry x="44.0701986754967" y="117.6122807017544" width="226.96152317880797" height="93.0982456140351" as="geometry" />
        </mxCell>
        <mxCell id="3f7pc-ClaWelfc8Z_cNx-4" value="" style="ellipse;whiteSpace=wrap;html=1;fillColor=none;rotation=-90;strokeColor=#009682;strokeWidth=2;" parent="9tUMkkTMGl4NLALWimwQ-11" vertex="1">
          <mxGeometry x="44.0701986754967" y="117.6122807017544" width="226.96152317880797" height="93.0982456140351" as="geometry" />
        </mxCell>
        <mxCell id="3f7pc-ClaWelfc8Z_cNx-5" value="" style="endArrow=openThin;html=1;rounded=0;exitX=0;exitY=0.5;exitDx=0;exitDy=0;endFill=0;strokeWidth=3;" parent="9tUMkkTMGl4NLALWimwQ-11" source="3f7pc-ClaWelfc8Z_cNx-4" edge="1">
          <mxGeometry width="50" height="50" relative="1" as="geometry">
            <mxPoint x="157.55096026490068" y="277.64210526315793" as="sourcePoint" />
            <mxPoint x="157.55096026490068" y="34.15438596491229" as="targetPoint" />
          </mxGeometry>
        </mxCell>
        <mxCell id="3f7pc-ClaWelfc8Z_cNx-7" value="" style="endArrow=openThin;html=1;rounded=0;startArrow=none;startFill=0;endFill=0;entryX=0.248;entryY=0.248;entryDx=0;entryDy=0;entryPerimeter=0;strokeWidth=3;" parent="9tUMkkTMGl4NLALWimwQ-11" target="3f7pc-ClaWelfc8Z_cNx-2" edge="1">
          <mxGeometry width="50" height="50" relative="1" as="geometry">
            <mxPoint x="200.51940397350995" y="121.19298245614036" as="sourcePoint" />
            <mxPoint x="114.58251655629141" y="207.12982456140352" as="targetPoint" />
          </mxGeometry>
        </mxCell>
        <mxCell id="3f7pc-ClaWelfc8Z_cNx-8" value="" style="endArrow=openThin;html=1;rounded=0;exitX=0.5;exitY=0;exitDx=0;exitDy=0;endFill=0;strokeWidth=3;" parent="9tUMkkTMGl4NLALWimwQ-11" source="3f7pc-ClaWelfc8Z_cNx-2" edge="1">
          <mxGeometry width="50" height="50" relative="1" as="geometry">
            <mxPoint x="157.55096026490068" y="50.986744639376276" as="sourcePoint" />
            <mxPoint x="289.7615562913908" y="164.16140350877194" as="targetPoint" />
          </mxGeometry>
        </mxCell>
        <mxCell id="9tUMkkTMGl4NLALWimwQ-1" value="\(Z\)" style="text;html=1;align=center;verticalAlign=middle;whiteSpace=wrap;rounded=0;fontSize=16;" vertex="1" parent="9tUMkkTMGl4NLALWimwQ-11">
          <mxGeometry x="130.00708609271524" y="52.8842105263158" width="29.74738410596027" height="33.05263157894737" as="geometry" />
        </mxCell>
        <mxCell id="9tUMkkTMGl4NLALWimwQ-2" value="\(Y\)" style="text;html=1;align=center;verticalAlign=middle;whiteSpace=wrap;rounded=0;fontSize=16;" vertex="1" parent="9tUMkkTMGl4NLALWimwQ-11">
          <mxGeometry x="231.36854304635764" y="135.5157894736842" width="29.74738410596027" height="33.05263157894737" as="geometry" />
        </mxCell>
        <mxCell id="9tUMkkTMGl4NLALWimwQ-3" value="\(X\)" style="text;html=1;align=center;verticalAlign=middle;whiteSpace=wrap;rounded=0;fontSize=16;" vertex="1" parent="9tUMkkTMGl4NLALWimwQ-11">
          <mxGeometry x="84.83513245033113" y="175.4543859649123" width="29.74738410596027" height="33.05263157894737" as="geometry" />
        </mxCell>
        <mxCell id="9tUMkkTMGl4NLALWimwQ-5" value="\(\vert0\rangle\)" style="text;html=1;align=center;verticalAlign=middle;whiteSpace=wrap;rounded=0;fontSize=16;" vertex="1" parent="9tUMkkTMGl4NLALWimwQ-11">
          <mxGeometry x="142.67726821192056" width="29.74738410596027" height="33.05263157894737" as="geometry" />
        </mxCell>
        <mxCell id="9tUMkkTMGl4NLALWimwQ-6" value="\(\vert1\rangle\)" style="text;html=1;align=center;verticalAlign=middle;whiteSpace=wrap;rounded=0;fontSize=16;" vertex="1" parent="9tUMkkTMGl4NLALWimwQ-11">
          <mxGeometry x="142.67726821192056" y="280.94736842105266" width="29.74738410596027" height="33.05263157894737" as="geometry" />
        </mxCell>
        <mxCell id="9tUMkkTMGl4NLALWimwQ-7" value="\(\vert+i\rangle\)" style="text;html=1;align=center;verticalAlign=middle;whiteSpace=wrap;rounded=0;fontSize=16;" vertex="1" parent="9tUMkkTMGl4NLALWimwQ-11">
          <mxGeometry x="302.9826158940398" y="147.63508771929827" width="29.74738410596027" height="33.05263157894737" as="geometry" />
        </mxCell>
        <mxCell id="9tUMkkTMGl4NLALWimwQ-8" value="\(\vert+i\rangle\)" style="text;html=1;align=center;verticalAlign=middle;whiteSpace=wrap;rounded=0;fontSize=16;" vertex="1" parent="9tUMkkTMGl4NLALWimwQ-11">
          <mxGeometry y="147.63508771929827" width="29.74738410596027" height="33.05263157894737" as="geometry" />
        </mxCell>
        <mxCell id="9tUMkkTMGl4NLALWimwQ-9" value="\(\vert+\rangle\)" style="text;html=1;align=center;verticalAlign=middle;whiteSpace=wrap;rounded=0;fontSize=16;" vertex="1" parent="9tUMkkTMGl4NLALWimwQ-11">
          <mxGeometry x="73.81758278145696" y="220.35087719298247" width="29.74738410596027" height="33.05263157894737" as="geometry" />
        </mxCell>
        <mxCell id="9tUMkkTMGl4NLALWimwQ-10" value="\(\vert-\rangle\)" style="text;html=1;align=center;verticalAlign=middle;whiteSpace=wrap;rounded=0;fontSize=16;" vertex="1" parent="9tUMkkTMGl4NLALWimwQ-11">
          <mxGeometry x="202.7229139072848" y="85.93684210526317" width="29.74738410596027" height="33.05263157894737" as="geometry" />
        </mxCell>
      </root>
    </mxGraphModel>
  </diagram>
</mxfile>
